<?xml version="1.0" encoding="UTF-8"?>
<svg width="94px" height="64px" viewBox="0 0 94 64" version="1.1" xmlns="http://www.w3.org/2000/svg" xmlns:xlink="http://www.w3.org/1999/xlink">
    <!-- Generator: Sketch 43.2 (39069) - http://www.bohemiancoding.com/sketch -->
    <title>green</title>
    <desc>Created with Sketch.</desc>
    <defs></defs>
    <g id="Page-3" stroke="none" stroke-width="1" fill="none" fill-rule="evenodd">
        <g id="Artboard" transform="translate(-134.000000, -331.000000)">
            <g id="green" transform="translate(181.000000, 363.000000) scale(-1, 1) translate(-181.000000, -363.000000) translate(134.000000, 331.000000)">
                <path d="M15.7755973,23.5335323 C15.7730738,23.4004378 15.7705503,23.2660697 15.7705503,23.1329751 C15.7705503,10.3568557 26.030745,0 38.6866779,0 C49.5938322,0 58.720349,7.69146269 61.035651,17.9948259 C63.1944966,16.7746866 65.6810805,16.0757811 68.3313758,16.0757811 C76.5992752,16.0757811 83.3022953,22.8419502 83.3022953,31.1890149 C83.3022953,31.5297114 83.2874698,31.8669055 83.2653893,32.2028259 C89.4028322,34.5023682 93.7782483,40.4677413 93.7782483,47.463801 C93.7782483,56.4515025 86.5588591,63.7385871 77.6553557,63.7385871 L20.1535369,63.7385871 C9.02305369,63.7385871 0,54.6305274 0,43.3942289 C0,33.6764179 6.7497047,25.5522388 15.7755973,23.5335323 Z" id="Fill-1-Copy" fill="#14721E"></path>
                <path d="M38.3028549,49.215025 L27.7902381,38.7212319 C27.0172891,37.949744 27.0172891,36.6990665 27.7902381,35.9276558 C28.5631098,35.1562451 29.8160308,35.156168 30.5888252,35.9276558 L39.7021871,45.0246994 L63.4112907,21.3578945 C64.1841624,20.5863295 65.4370835,20.5863295 66.2098779,21.3578945 C66.9826723,22.1293823 66.9827496,23.3800599 66.2098779,24.1514706 L41.1015193,49.215025 C40.3293433,49.9858955 39.0754174,49.9864356 38.3028549,49.215025" id="Fill-1" fill="#FFFFFF" transform="translate(47.000014, 35.286301) scale(-1, 1) translate(-47.000014, -35.286301) "></path>
            </g>
        </g>
    </g>
</svg>