<?xml version="1.0" encoding="UTF-8"?>
<svg width="94px" height="64px" viewBox="0 0 94 64" version="1.1" xmlns="http://www.w3.org/2000/svg" xmlns:xlink="http://www.w3.org/1999/xlink">
    <!-- Generator: Sketch 43.2 (39069) - http://www.bohemiancoding.com/sketch -->
    <title>red</title>
    <desc>Created with Sketch.</desc>
    <defs></defs>
    <g id="Page-3" stroke="none" stroke-width="1" fill="none" fill-rule="evenodd">
        <g id="Artboard" transform="translate(-10.000000, -254.000000)">
            <g id="red" transform="translate(10.000000, 254.000000)">
                <path d="M15.7755973,23.5335323 C15.7730738,23.4004378 15.7705503,23.2660697 15.7705503,23.1329751 C15.7705503,10.3568557 26.030745,0 38.6866779,0 C49.5938322,0 58.720349,7.69146269 61.035651,17.9948259 C63.1944966,16.7746866 65.6810805,16.0757811 68.3313758,16.0757811 C76.5992752,16.0757811 83.3022953,22.8419502 83.3022953,31.1890149 C83.3022953,31.5297114 83.2874698,31.8669055 83.2653893,32.2028259 C89.4028322,34.5023682 93.7782483,40.4677413 93.7782483,47.463801 C93.7782483,56.4515025 86.5588591,63.7385871 77.6553557,63.7385871 L20.1535369,63.7385871 C9.02305369,63.7385871 0,54.6305274 0,43.3942289 C0,33.6764179 6.7497047,25.5522388 15.7755973,23.5335323 Z" id="Fill-1" fill="#DF4114" transform="translate(46.889124, 31.869294) scale(-1, 1) translate(-46.889124, -31.869294) "></path>
                <path d="M52.244862,39.8958981 L64.5657438,27.4762859 C65.3307979,26.7051012 65.3307979,25.4540866 64.5657438,24.6829019 C63.7998732,23.9108942 62.5628861,23.9108942 61.7970155,24.6829019 L49.4736842,37.1025142 L37.1528024,24.6829019 C36.3869318,23.9108942 35.1466787,23.9108942 34.3808081,24.6829019 C33.615754,25.4540866 33.615754,26.7051012 34.3808081,27.4762859 L46.7049559,39.8958981 L34.3808081,52.3155104 C33.615754,53.0875181 33.615754,54.3377097 34.3808081,55.1097174 C34.7637434,55.4948982 35.2642537,55.6883117 35.764764,55.6883117 C36.2660908,55.6883117 36.7698671,55.4948982 37.1528024,55.1097174 L49.4736842,42.6901051 L61.7970155,55.1097174 C62.1799508,55.4948982 62.6804611,55.6883117 63.1817879,55.6883117 C63.6822982,55.6883117 64.1828085,55.4948982 64.5657438,55.1097174 C65.3307979,54.3377097 65.3307979,53.0875181 64.5657438,52.3155104 L52.244862,39.8958981 Z" id="Fill-1" fill="#FFFFFF"></path>
            </g>
        </g>
    </g>
</svg>