<?xml version="1.0" encoding="UTF-8"?>
<svg width="94px" height="64px" viewBox="0 0 94 64" version="1.1" xmlns="http://www.w3.org/2000/svg" xmlns:xlink="http://www.w3.org/1999/xlink">
    <!-- Generator: Sketch 43.2 (39069) - http://www.bohemiancoding.com/sketch -->
    <title>gray</title>
    <desc>Created with Sketch.</desc>
    <defs></defs>
    <g id="Page-3" stroke="none" stroke-width="1" fill="none" fill-rule="evenodd">
        <g id="Artboard" transform="translate(-134.000000, -222.000000)" fill="#C4C5C6">
            <g id="gray" transform="translate(181.000000, 254.000000) scale(-1, 1) translate(-181.000000, -254.000000) translate(134.000000, 222.000000)">
                <path d="M15.7755973,23.7949453 C15.7730738,23.6618507 15.7705503,23.5274826 15.7705503,23.3943881 C15.7705503,10.6182687 26.030745,0.261412935 38.6866779,0.261412935 C49.5938322,0.261412935 58.720349,7.95287562 61.035651,18.2562388 C63.1944966,17.0360995 65.6810805,16.337194 68.3313758,16.337194 C76.5992752,16.337194 83.3022953,23.1033632 83.3022953,31.4504279 C83.3022953,31.7911244 83.2874698,32.1283184 83.2653893,32.4642388 C89.4028322,34.7637811 93.7782483,40.7291542 93.7782483,47.7252139 C93.7782483,56.7129154 86.5588591,64 77.6553557,64 L20.1535369,64 C9.02305369,64 0,54.8919403 0,43.6556418 C0,33.9378308 6.7497047,25.8136517 15.7755973,23.7949453 Z" id="Fill-1"></path>
            </g>
        </g>
    </g>
</svg>